<svg width="16" height="16" viewBox="0 0 16 16" fill="none" xmlns="http://www.w3.org/2000/svg">
<g id="COCO/Bold/Message-5">
<path id="Vector" fill-rule="evenodd" clip-rule="evenodd" d="M6.04336 2.38083C7.4054 2.09539 8.81697 2.09539 10.179 2.38083L10.4639 2.44054C11.6393 2.68687 12.661 3.30906 13.381 4.17057C13.4985 4.3112 13.459 4.51396 13.3038 4.61676L9.00191 7.46542C8.46709 7.81958 7.75526 7.81957 7.22044 7.46542L2.9186 4.61676C2.76336 4.51396 2.72385 4.3112 2.84137 4.17058C3.56134 3.30906 4.58304 2.68687 5.75844 2.44054L6.04336 2.38083ZM2.48841 5.52762C2.30827 5.40833 2.05716 5.47672 1.98896 5.67447C1.95087 5.78492 1.9168 5.89715 1.8869 6.01104C1.54397 7.31723 1.54397 8.68294 1.8869 9.98913C2.35654 11.7779 3.85621 13.161 5.75844 13.5596L6.04336 13.6193C7.4054 13.9048 8.81697 13.9048 10.179 13.6193L10.4639 13.5596C12.3662 13.161 13.8658 11.7779 14.3355 9.98912C14.6784 8.68294 14.6784 7.31723 14.3355 6.01104C14.3056 5.89715 14.2715 5.78491 14.2334 5.67446C14.1652 5.47671 13.9141 5.40832 13.734 5.52761L9.59573 8.26792C8.70437 8.85818 7.51798 8.85818 6.62662 8.26792L2.48841 5.52762Z" fill="white"/>
</g>
</svg>
