<svg width="17" height="17" viewBox="0 0 17 17" fill="none" xmlns="http://www.w3.org/2000/svg">
<path d="M5.0324 2.125C4.79381 2.125 4.55682 2.16138 4.3284 2.2327L4.1538 2.28722C3.13669 2.60482 2.4001 3.51326 2.20862 4.59991C2.09713 5.2326 2.09713 5.88278 2.20862 6.51547C2.213 6.54035 2.21767 6.56514 2.22262 6.58983C3.02036 10.7363 6.26368 13.9796 10.4101 14.7774C10.4348 14.7823 10.4596 14.787 10.4845 14.7914C11.1172 14.9029 11.7674 14.9029 12.4001 14.7914C13.4867 14.5999 14.3952 13.8633 14.7128 12.8462L14.7673 12.6716C14.8386 12.4432 14.875 12.2062 14.875 11.9676C14.875 10.8208 13.8652 9.97115 12.7232 9.97115H10.1615C9.01945 9.97115 8.00962 10.8208 8.00962 11.9676C8.00962 12.2062 8.04599 12.4432 8.11732 12.6716L8.17184 12.8462C8.19045 12.9058 8.2111 12.9645 8.23369 13.0221C6.38627 12.1124 4.88757 10.6137 3.97788 8.76631C4.03552 8.7889 4.09418 8.80955 4.1538 8.82816L4.3284 8.88268C4.55682 8.95401 4.7938 8.99038 5.0324 8.99038C6.17921 8.99038 7.02885 7.98055 7.02885 6.83854L7.02885 4.27685C7.02885 3.13484 6.17921 2.125 5.0324 2.125Z" fill="white"/>
</svg>
